<svg width="49" height="49" viewBox="0 0 49 49" fill="none" xmlns="http://www.w3.org/2000/svg">
<g filter="url(#filter0_d_2_452)">
<circle cx="20.4493" cy="20.3424" r="8.16835" fill="#73A242"/>
</g>
<path d="M15.6439 20.2271C15.6439 19.8108 15.7165 19.4309 15.8617 19.0872C16.0118 18.7435 16.2078 18.4628 16.4499 18.2449C16.6967 18.0223 16.9726 17.8504 17.2776 17.7294C17.5825 17.6084 17.8996 17.5479 18.2288 17.5479C18.5579 17.5479 18.875 17.6084 19.1799 17.7294C19.4849 17.8504 19.7584 18.0223 20.0004 18.2449C20.2472 18.4628 20.4433 18.7435 20.5885 19.0872C20.7386 19.4309 20.8136 19.8108 20.8136 20.2271C20.8136 20.9968 20.5716 21.6309 20.0875 22.1294L20.6901 22.8047L20.2037 23.2331L19.5793 22.5433C19.1726 22.7902 18.7225 22.9136 18.2288 22.9136C17.7883 22.9136 17.3744 22.8119 16.9872 22.6086C16.5999 22.4053 16.278 22.0956 16.0215 21.6793C15.7698 21.263 15.6439 20.7789 15.6439 20.2271ZM16.9146 18.7387C16.5515 19.092 16.37 19.5882 16.37 20.2271C16.37 20.8661 16.5515 21.3646 16.9146 21.7228C17.2776 22.081 17.7157 22.2601 18.2288 22.2601C18.5579 22.2601 18.858 22.1851 19.1291 22.035L18.236 21.0331L18.7297 20.6047L19.6301 21.6212C19.935 21.2533 20.0875 20.7886 20.0875 20.2271C20.0875 19.5882 19.906 19.092 19.5429 18.7387C19.1799 18.3805 18.7418 18.2014 18.2288 18.2014C17.7157 18.2014 17.2776 18.3805 16.9146 18.7387ZM23.1905 21.8898L24.7588 17.6568H25.5067L23.5245 22.8047H22.8202L20.8816 17.6568H21.6367L23.1905 21.8898Z" fill="white"/>
<defs>
<filter id="filter0_d_2_452" x="0.280945" y="0.174072" width="48.3367" height="48.3367" filterUnits="userSpaceOnUse" color-interpolation-filters="sRGB">
<feFlood flood-opacity="0" result="BackgroundImageFix"/>
<feColorMatrix in="SourceAlpha" type="matrix" values="0 0 0 0 0 0 0 0 0 0 0 0 0 0 0 0 0 0 127 0" result="hardAlpha"/>
<feOffset dx="4" dy="4"/>
<feGaussianBlur stdDeviation="8"/>
<feColorMatrix type="matrix" values="0 0 0 0 0 0 0 0 0 0 0 0 0 0 0 0 0 0 0.1 0"/>
<feBlend mode="normal" in2="BackgroundImageFix" result="effect1_dropShadow_2_452"/>
<feBlend mode="normal" in="SourceGraphic" in2="effect1_dropShadow_2_452" result="shape"/>
</filter>
</defs>
</svg>
